<svg xmlns="http://www.w3.org/2000/svg" width="21.001" height="23" viewBox="0 0 21.001 23">
    <g transform="translate(-335.999 -51)">
        <path fill="#fff" d="M18.181 0H.818a.813.813 0 0 0-.727.455.869.869 0 0 0 .064.884l6.361 9.2.007.009a1.9 1.9 0 0 1 .357 1.107v7.5a.847.847 0 0 0 .236.593.8.8 0 0 0 .576.252.818.818 0 0 0 .32-.066l3.574-1.4a.794.794 0 0 0 .533-.784v-6.092a1.9 1.9 0 0 1 .357-1.107l.007-.009 6.361-9.2a.868.868 0 0 0 .064-.884.813.813 0 0 0-.727-.458zm0 0" transform="translate(336 54)"/>
        <circle cx="5" cy="5" r="5" fill="#f59c32" transform="translate(347 51)"/>
    </g>
</svg>
